<?xml version="1.0" standalone="no"?>
<!DOCTYPE svg PUBLIC "-//W3C//DTD SVG 20010904//EN"
 "http://www.w3.org/TR/2001/REC-SVG-20010904/DTD/svg10.dtd">
<svg version="1.0" xmlns="http://www.w3.org/2000/svg"
 width="500.000000pt" height="500.000000pt" viewBox="0 0 500.000000 500.000000"
 preserveAspectRatio="xMidYMid meet">
<metadata>
Created by potrace 1.14, written by Peter Selinger 2001-2017
</metadata>
<g transform="translate(0.000000,500.000000) scale(0.100000,-0.100000)"
fill="#000000" stroke="none">
<path d="M2276 4769 c2 -4 15 -5 29 -4 14 2 25 0 25 -4 0 -4 -44 -9 -97 -10
-54 -2 -108 -4 -121 -4 -15 -1 -21 -6 -17 -15 4 -12 -2 -14 -30 -9 -20 3 -35
2 -35 -4 0 -6 -5 -7 -10 -4 -6 4 -18 1 -26 -6 -8 -7 -27 -14 -41 -15 -24 -3
-24 -2 -7 13 15 12 13 12 -9 -1 -15 -9 -32 -14 -37 -11 -6 3 -10 -1 -10 -9 0
-18 -16 -21 -25 -6 -4 6 -11 8 -16 4 -5 -3 -6 -10 -3 -16 4 -7 -6 -9 -29 -6
-21 2 -33 0 -30 -6 4 -5 -3 -7 -15 -4 -20 6 -27 -2 -23 -24 0 -5 -3 -8 -9 -8
-5 0 -10 6 -10 13 0 7 -3 8 -8 2 -4 -5 -16 -11 -27 -12 -40 -5 -53 -9 -68 -21
-8 -7 -26 -13 -40 -14 -14 -1 -23 -6 -20 -11 3 -5 11 -6 19 -3 7 3 16 2 18 -3
3 -4 -7 -8 -22 -8 -53 -2 -80 -7 -76 -15 3 -5 10 -6 15 -3 5 4 9 1 9 -5 0 -6
-11 -8 -23 -6 -27 5 -52 -7 -44 -21 3 -5 1 -10 -6 -11 -7 0 -29 -2 -50 -3 -23
-1 -33 -5 -25 -10 6 -4 15 -6 19 -3 4 2 11 0 14 -6 4 -6 3 -10 -2 -9 -31 5
-73 -3 -70 -13 1 -7 -7 -13 -18 -13 -12 -1 -19 -7 -17 -15 3 -11 0 -11 -12 -1
-11 9 -16 9 -22 0 -4 -7 -3 -9 3 -6 6 4 13 1 16 -7 4 -10 -1 -13 -19 -11 -14
1 -24 -3 -24 -11 0 -7 -13 -15 -30 -19 -17 -4 -30 -13 -30 -21 0 -9 -5 -12
-10 -9 -5 3 -10 1 -10 -5 0 -6 -5 -8 -12 -4 -8 5 -9 2 -4 -11 6 -16 4 -16 -11
-4 -11 9 -14 10 -9 2 4 -8 2 -13 -8 -13 -8 0 -24 -13 -36 -30 -12 -16 -30 -30
-41 -30 -12 0 -19 -7 -19 -20 0 -13 -5 -18 -15 -14 -9 4 -15 0 -15 -10 0 -9
-6 -16 -14 -16 -7 0 -16 -9 -19 -20 -3 -13 -11 -18 -26 -15 -11 2 -24 -1 -27
-7 -4 -6 -2 -8 4 -4 6 3 13 2 17 -4 3 -5 -1 -10 -9 -10 -9 0 -16 -6 -16 -14 0
-8 -9 -18 -20 -21 -11 -4 -17 -11 -14 -17 5 -8 1 -9 -10 -5 -10 4 -15 3 -11
-3 3 -6 1 -10 -5 -10 -6 0 -8 -5 -5 -11 4 -6 -2 -13 -14 -16 -12 -3 -21 -12
-21 -19 0 -8 -7 -14 -15 -14 -8 0 -15 -9 -15 -20 0 -13 -5 -18 -15 -14 -14 6
-21 -18 -16 -49 1 -5 -3 -6 -9 -2 -5 3 -13 -1 -16 -9 -3 -9 -10 -16 -16 -16
-5 0 -6 5 -2 12 4 7 3 8 -5 4 -6 -4 -9 -12 -6 -17 4 -5 1 -9 -6 -9 -8 0 -8 -4
1 -15 10 -13 9 -15 -9 -15 -12 0 -19 -4 -16 -10 3 -6 -1 -13 -9 -16 -9 -3 -13
-10 -10 -15 3 -5 -1 -9 -9 -9 -8 0 -14 -8 -13 -17 0 -10 -5 -17 -12 -15 -8 1
-11 -2 -7 -8 3 -5 1 -10 -5 -10 -6 0 -9 -4 -5 -9 3 -5 0 -13 -6 -17 -8 -5 -8
-8 1 -14 8 -5 7 -9 -5 -13 -9 -4 -13 -3 -10 2 3 5 2 12 -3 15 -7 4 -12 -12
-15 -55 -1 -9 -7 -15 -13 -12 -8 3 -14 -7 -16 -24 -2 -16 -8 -27 -15 -25 -11
2 -19 -32 -14 -60 0 -5 -4 -8 -10 -8 -6 0 -9 7 -6 15 4 8 3 16 -1 19 -4 3 -9
-10 -11 -27 -6 -61 -7 -67 -16 -74 -4 -5 -5 -2 -1 5 11 18 -9 15 -25 -5 -8
-10 -9 -14 -2 -10 6 4 14 3 17 -2 4 -5 2 -12 -3 -16 -5 -3 -8 -14 -6 -25 2
-12 0 -18 -5 -15 -5 3 -7 15 -5 27 3 14 1 18 -5 12 -6 -6 -12 -25 -14 -44 -2
-19 -4 -39 -5 -43 0 -5 -5 -6 -10 -3 -10 6 -25 -24 -16 -32 3 -3 5 1 5 8 0 7
3 10 7 7 3 -4 -6 -20 -21 -35 -18 -20 -22 -29 -12 -29 8 0 13 4 10 8 -2 4 0
10 5 13 17 11 5 -24 -12 -36 -12 -9 -16 -23 -13 -46 2 -22 -2 -36 -13 -45 -10
-7 -18 -29 -20 -52 -2 -22 -4 -51 -5 -64 -1 -13 -10 -28 -20 -33 -13 -7 -14
-13 -6 -23 6 -7 7 -15 3 -18 -4 -3 -8 -23 -7 -46 0 -33 -2 -38 -13 -30 -10 9
-13 8 -13 -1 0 -7 8 -19 18 -26 16 -13 16 -14 0 -8 -16 5 -18 -1 -18 -55 0
-34 0 -64 1 -67 0 -4 -5 -10 -13 -15 -9 -6 -13 -35 -14 -98 0 -50 -3 -93 -7
-97 -3 -3 -2 -16 3 -28 4 -13 5 -29 0 -36 -4 -7 -5 -24 -1 -39 4 -14 6 -40 5
-58 -2 -25 1 -31 14 -27 10 3 6 -2 -8 -10 -14 -8 -20 -15 -14 -16 6 0 10 -15
9 -35 -1 -19 3 -40 8 -47 6 -9 7 -8 3 5 -3 9 -2 17 3 17 4 0 9 -35 10 -77 1
-43 3 -84 3 -90 2 -17 15 -17 22 0 3 6 3 -3 0 -20 -3 -22 0 -33 8 -33 8 0 9
-3 3 -8 -14 -10 -14 -82 1 -82 19 0 37 -27 23 -35 -8 -6 -7 -10 2 -16 11 -7
11 -9 1 -9 -7 0 -10 -5 -7 -10 4 -6 12 -7 18 -3 9 5 9 3 1 -8 -13 -16 -15 -51
-2 -43 5 3 6 9 3 14 -3 5 -1 11 3 14 16 10 8 -34 -8 -45 -12 -8 -10 -9 6 -4
17 4 22 1 20 -12 0 -10 -5 -21 -11 -25 -5 -4 1 -8 15 -9 14 0 19 -3 13 -6 -7
-2 -13 -12 -13 -21 0 -15 2 -15 10 -2 8 13 10 12 11 -5 4 -50 7 -66 14 -73 5
-4 5 1 2 10 -4 11 -2 15 7 12 7 -3 12 -16 10 -30 -1 -14 6 -32 17 -42 11 -11
17 -27 14 -41 -3 -18 -1 -22 14 -18 12 3 18 -1 18 -12 0 -59 4 -81 13 -76 6 4
7 11 4 17 -4 7 -2 8 5 4 6 -4 9 -12 6 -17 -4 -5 -1 -9 6 -9 9 0 9 -3 0 -14 -8
-10 -9 -16 -1 -21 6 -3 8 -11 5 -16 -3 -5 1 -6 9 -3 12 5 16 -1 16 -20 0 -15
7 -29 15 -32 8 -4 12 -10 9 -15 -3 -5 0 -9 5 -9 6 0 11 -7 11 -15 0 -9 7 -18
15 -21 8 -4 12 -10 9 -15 -3 -5 2 -9 10 -9 8 0 18 -5 22 -12 5 -8 2 -9 -10 -5
-15 6 -15 5 1 -18 10 -13 24 -25 32 -25 8 0 11 -7 8 -20 -3 -11 2 -25 11 -32
10 -9 13 -9 9 -1 -4 6 -2 15 5 19 7 4 10 4 6 0 -10 -11 12 -66 25 -63 7 1 11
-6 10 -16 0 -12 4 -16 12 -13 9 3 15 -4 17 -17 2 -14 9 -21 20 -19 12 2 16 -2
12 -13 -4 -10 0 -15 10 -15 9 0 16 -6 16 -14 0 -7 10 -16 23 -20 18 -5 20 -8
7 -16 -11 -7 -11 -10 -2 -10 7 0 11 -4 7 -9 -3 -5 0 -13 6 -17 7 -4 9 -3 6 3
-4 6 0 13 8 16 9 4 12 1 8 -9 -3 -7 -1 -14 5 -14 5 0 12 -9 15 -21 3 -12 12
-19 23 -17 10 2 18 -4 20 -16 1 -10 8 -24 15 -30 9 -8 10 -8 5 1 -4 7 -2 13 3
13 6 0 11 -7 11 -15 0 -8 7 -15 16 -15 10 0 14 -6 10 -15 -5 -13 5 -20 26 -16
5 0 8 -6 8 -14 0 -8 7 -16 15 -16 29 -3 33 -4 42 -13 4 -5 3 -6 -4 -2 -6 3
-14 2 -18 -4 -5 -9 23 -15 48 -11 5 1 6 -3 2 -9 -3 -6 -11 -8 -16 -5 -5 4 -9
1 -9 -5 0 -7 8 -9 22 -5 17 6 20 4 14 -10 -6 -16 -4 -16 10 -4 15 12 16 11 10
-11 -5 -17 -4 -21 2 -11 7 9 12 10 16 2 4 -6 12 -9 17 -6 5 4 9 -3 9 -14 0
-13 5 -18 13 -15 8 3 19 -5 26 -18 6 -13 9 -15 7 -6 -3 10 -1 20 5 23 5 4 9 3
8 -2 -3 -18 1 -36 8 -30 3 4 12 -1 19 -11 7 -9 18 -17 26 -17 7 -1 12 -7 10
-15 -3 -11 0 -11 12 -1 11 9 16 9 22 0 5 -8 3 -9 -6 -4 -9 5 -11 4 -6 -4 4 -6
13 -11 19 -10 24 3 37 -1 37 -12 0 -5 -5 -7 -12 -3 -7 4 -8 3 -4 -5 4 -6 11
-9 16 -6 11 7 85 -20 84 -31 0 -5 7 -8 17 -6 12 2 17 -1 14 -10 -4 -9 3 -14
16 -15 12 -1 25 -7 29 -13 4 -7 23 -15 41 -19 19 -4 34 -12 34 -18 0 -6 4 -15
9 -20 5 -5 6 -3 2 5 -4 7 -2 12 6 12 9 0 9 3 -2 10 -9 6 -10 10 -3 10 7 0 17
-9 23 -21 6 -11 19 -19 28 -18 31 3 42 -1 39 -13 -1 -7 10 -12 28 -12 17 -1
37 -8 45 -16 8 -9 12 -11 7 -4 -5 8 1 12 18 12 14 0 25 -5 25 -10 0 -5 -6 -6
-12 -2 -10 5 -10 3 0 -7 11 -12 14 -12 22 1 7 10 10 11 10 3 0 -8 13 -13 29
-13 16 0 31 -6 34 -13 3 -9 22 -13 56 -13 39 1 52 -3 56 -15 6 -17 50 -20 74
-5 10 6 12 5 7 -2 -5 -9 11 -12 58 -12 56 0 66 -3 67 -17 0 -15 2 -15 7 -3 5
10 22 15 49 16 23 0 40 -3 38 -7 -3 -3 -18 -5 -35 -4 -17 1 -32 0 -35 -4 -2
-4 100 -7 227 -8 126 0 224 3 218 7 -7 4 -25 6 -41 5 -17 -2 -27 0 -24 3 10
10 105 10 105 0 0 -5 -6 -6 -12 -2 -7 4 -9 3 -5 -1 13 -15 36 -14 30 1 -4 11
8 14 53 15 108 2 122 4 145 24 12 11 19 14 14 6 -5 -9 -4 -12 2 -8 6 4 32 8
57 9 26 0 41 5 35 9 -7 4 -24 5 -38 2 -14 -2 -22 -1 -18 3 7 7 34 10 100 13
12 1 16 5 11 14 -5 7 -1 6 10 -2 16 -13 17 -13 14 0 -1 7 2 14 7 14 6 0 9 -6
7 -15 -2 -11 1 -10 12 4 10 12 27 19 46 18 26 -1 29 2 19 14 -10 12 -9 13 5 8
9 -3 16 -11 16 -17 0 -6 3 -7 6 -4 4 4 1 14 -6 22 -11 13 -11 16 1 13 8 -2 17
-7 21 -13 5 -6 8 -6 8 1 0 6 15 11 33 10 22 0 32 4 32 14 0 9 9 15 23 14 14
-1 21 3 19 11 -3 6 0 12 6 13 52 7 62 11 59 22 -2 10 1 10 14 -1 16 -12 17
-12 12 2 -5 12 -1 16 15 15 12 0 22 4 22 11 0 6 4 15 9 20 5 4 6 3 2 -4 -3 -6
-2 -14 4 -18 5 -3 10 1 10 9 0 8 8 15 18 15 38 1 51 5 46 13 -3 5 -10 5 -16 2
-7 -4 -8 -2 -4 4 4 7 18 12 31 12 13 0 27 5 31 12 5 7 3 8 -6 3 -9 -5 -11 -4
-6 4 6 9 11 9 24 -1 12 -10 14 -10 8 -1 -4 8 -2 13 4 13 6 0 9 4 5 9 -3 5 -1
13 5 16 6 4 9 3 8 -2 -2 -4 2 -9 7 -10 6 -2 10 3 10 10 0 6 10 11 22 11 12 -1
24 5 27 12 3 9 -1 11 -12 8 -14 -5 -15 -4 -2 5 8 6 23 8 33 5 11 -4 17 0 17
11 0 11 5 15 15 12 8 -4 17 -1 21 5 5 7 2 8 -7 4 -8 -4 -6 -1 3 7 10 8 14 18
10 22 -4 5 -2 6 3 3 14 -8 50 7 51 21 3 22 4 23 21 10 15 -13 16 -12 11 9 -5
17 -2 22 15 23 12 1 26 1 31 0 5 -1 3 6 -5 15 -12 16 -12 17 3 12 22 -9 30 2
15 20 -9 13 -9 14 1 8 6 -4 12 -2 12 3 0 6 3 10 8 9 12 -5 52 28 44 37 -4 4 3
6 14 3 15 -4 21 -1 20 11 -1 11 6 15 19 13 l20 -4 -20 16 c-16 13 -17 15 -2
10 10 -4 17 -1 17 6 0 7 6 10 14 7 8 -3 13 1 12 11 0 9 6 17 14 17 8 0 17 11
20 25 4 14 12 24 18 23 7 -2 12 7 12 19 0 12 3 18 7 15 11 -11 32 14 26 30 -4
11 -3 14 6 9 8 -5 14 0 18 13 4 17 8 19 19 10 12 -10 13 -9 8 5 -3 9 -2 16 4
16 6 0 9 11 7 25 -1 14 0 23 3 21 2 -3 17 1 32 9 21 11 27 20 24 40 -2 21 1
25 13 21 13 -6 14 -4 3 9 -11 13 -11 16 1 13 8 -2 15 6 17 19 2 14 8 20 18 16
10 -4 12 0 8 11 -3 9 -1 16 6 16 7 0 9 9 6 23 -3 12 -3 16 0 10 10 -22 25 -14
22 10 -2 14 2 21 10 19 12 -2 30 52 24 72 -2 5 4 4 12 -4 9 -7 16 -9 17 -4 0
5 2 23 2 39 1 19 7 29 15 27 7 -1 12 5 10 15 -2 11 2 17 11 15 12 -3 12 0 2
12 -14 17 2 32 22 20 8 -5 8 -2 -2 9 -7 9 -9 17 -3 17 5 0 10 6 9 13 -1 40 4
56 17 51 11 -4 14 3 12 34 -2 35 -1 39 18 34 19 -5 19 -4 7 11 -10 13 -10 17
-1 17 7 0 10 7 6 15 -3 9 0 15 9 15 7 0 17 5 21 12 4 7 3 8 -4 4 -7 -4 -17 -4
-24 0 -8 5 -6 9 7 14 19 7 22 17 27 88 3 37 5 40 16 25 15 -21 16 -9 1 19 -8
15 -8 19 0 14 7 -5 11 4 11 26 0 22 3 28 9 20 7 -11 9 -11 14 2 4 9 3 15 -1
15 -28 -4 -34 1 -21 18 8 9 13 18 11 20 -2 3 -1 7 2 10 3 3 4 -4 1 -16 -2 -11
0 -21 4 -21 9 0 10 10 10 121 1 50 5 68 16 72 21 9 18 77 -4 70 -14 -5 -14 -4
1 8 17 14 31 129 16 129 -4 0 -3 11 2 25 6 17 6 25 -1 25 -6 0 -7 6 -1 17 6 9
6 29 2 45 -5 16 -5 30 1 34 14 8 0 24 -16 17 -8 -3 -15 0 -15 6 0 6 6 10 13 8
9 -1 12 18 12 69 0 48 -3 70 -11 67 -6 -2 -11 3 -11 12 0 10 6 14 16 10 13 -4
12 -2 -1 9 -10 7 -18 19 -18 26 0 10 4 9 18 -1 16 -13 16 -13 0 7 -10 12 -18
37 -18 58 0 27 -3 35 -12 30 -9 -5 -8 -2 1 10 12 14 12 19 1 29 -9 9 -11 9 -6
0 3 -6 3 -14 -2 -17 -4 -2 -8 6 -8 19 0 15 5 21 13 18 7 -3 13 0 13 6 0 6 -3
10 -7 10 -23 -4 -29 4 -27 36 2 26 0 34 -9 29 -9 -5 -9 -3 1 7 17 18 15 34 -3
19 -18 -15 -19 -7 -4 22 8 15 8 19 0 14 -6 -4 -11 0 -11 11 0 11 -6 25 -12 32
-10 11 -10 12 -1 7 9 -5 12 0 11 18 -1 13 -6 22 -10 20 -5 -3 -5 -10 -2 -16 4
-7 2 -8 -5 -4 -6 4 -9 12 -6 17 4 5 0 9 -7 9 -9 0 -9 3 2 10 12 8 12 12 2 18
-7 5 -12 13 -11 18 3 20 -1 47 -8 41 -3 -4 -12 5 -20 19 -10 20 -10 30 -2 40
9 11 7 14 -10 14 -13 0 -19 4 -16 10 4 6 11 7 17 4 7 -4 8 -2 4 5 -4 6 -12 8
-18 5 -7 -5 -9 0 -6 14 4 15 2 22 -7 22 -8 0 -17 5 -21 12 -5 8 -2 9 9 5 9 -3
19 -1 23 5 4 6 3 8 -3 5 -12 -8 -36 17 -26 26 3 4 1 7 -6 7 -8 0 -11 7 -7 15
3 8 0 14 -6 12 -6 -1 -15 13 -18 31 -4 18 -11 36 -15 40 -4 4 -4 -4 -1 -18 6
-19 5 -21 -3 -10 -6 8 -11 32 -11 53 0 23 -4 36 -10 32 -6 -4 -8 -11 -5 -16 4
-5 1 -9 -5 -9 -6 0 -10 6 -9 13 5 41 -1 55 -23 50 -23 -5 -23 -5 -3 11 13 10
15 15 5 14 -8 -2 -14 4 -15 12 -1 8 -6 14 -13 12 -7 -1 -12 7 -12 18 0 11 -7
20 -15 20 -8 0 -15 4 -15 10 0 5 8 7 18 4 9 -2 7 1 -6 7 -13 7 -21 18 -18 26
5 12 -6 18 -27 14 -5 -1 -5 8 -2 20 5 16 4 19 -6 14 -9 -6 -11 -4 -6 8 4 11 2
14 -9 10 -9 -3 -14 2 -14 15 0 12 -9 27 -20 35 -11 8 -17 17 -12 22 4 4 -1 5
-10 2 -14 -5 -18 -1 -18 18 0 18 -4 23 -15 19 -9 -4 -15 0 -15 10 0 9 -7 16
-15 16 -8 0 -15 9 -15 19 0 11 -9 27 -21 35 -12 8 -18 19 -14 25 3 7 3 11 -2
10 -29 -5 -45 2 -39 17 5 13 4 14 -7 6 -10 -9 -14 -8 -15 3 -1 8 -3 21 -4 28
-1 8 -7 14 -15 14 -9 0 -10 -4 -3 -11 5 -5 10 -15 10 -20 0 -6 -7 0 -16 12 -8
12 -12 28 -8 35 5 7 0 6 -11 -3 -17 -14 -18 -13 -12 3 5 13 1 17 -16 18 -13 0
-17 3 -8 6 9 4 3 10 -18 19 -18 8 -30 18 -26 24 3 5 -1 10 -10 10 -9 0 -13 4
-10 10 3 5 -5 12 -19 16 -14 3 -24 11 -23 16 1 6 -4 13 -12 16 -9 3 -11 0 -7
-9 4 -8 1 -6 -7 3 -8 10 -17 15 -20 11 -4 -3 -7 1 -7 10 0 10 -7 17 -15 17 -9
0 -18 6 -21 14 -3 8 -15 16 -26 19 -13 4 -18 11 -15 20 4 11 -3 14 -26 13 -17
0 -32 5 -35 13 -3 9 0 11 8 6 9 -5 11 -4 6 4 -6 9 -11 9 -22 0 -12 -10 -15
-10 -12 2 2 10 -5 13 -22 11 -19 -2 -22 -1 -10 7 12 8 11 11 -5 17 -11 4 -28
14 -37 22 -10 8 -26 12 -38 9 -13 -3 -18 -1 -13 6 4 6 0 8 -10 4 -9 -3 -19 -1
-23 5 -4 6 -3 8 4 4 6 -3 13 -2 17 4 5 8 -48 16 -78 11 -5 -1 -6 2 -3 7 3 5
-2 18 -10 28 -9 10 -13 13 -9 7 4 -9 -2 -12 -19 -11 -13 1 -22 6 -20 10 3 5
10 5 16 2 7 -4 8 -2 4 5 -4 6 -12 9 -17 6 -5 -4 -9 -1 -9 5 0 8 -6 8 -20 0
-16 -9 -20 -8 -20 6 0 14 -3 14 -15 4 -13 -11 -14 -10 -10 3 4 8 2 18 -4 22
-6 3 -11 1 -11 -4 0 -6 -5 -11 -11 -11 -5 0 -7 5 -4 11 4 6 1 10 -6 8 -37 -4
-59 2 -59 18 0 9 -3 13 -6 10 -4 -3 -16 -2 -27 4 -15 9 -18 8 -12 -3 3 -7 -4
-2 -16 12 -15 17 -20 19 -16 8 8 -22 3 -23 -16 -4 -8 9 -38 16 -70 17 -31 1
-55 7 -54 12 2 9 -40 16 -110 20 -12 1 -19 5 -17 9 3 5 9 6 14 3 5 -3 11 -2
14 3 2 4 -10 8 -27 9 -132 2 -137 2 -131 21 5 14 4 15 -5 2 -8 -11 -31 -15
-90 -15 -43 0 -77 3 -75 6 2 4 33 5 69 4 36 -1 63 1 60 4 -4 3 -39 6 -78 7
-57 0 -73 -3 -79 -15 -6 -14 -7 -14 -7 0 -1 15 -18 17 -150 15 -82 0 -147 -4
-145 -7z m134 -9 c0 -5 -5 -10 -11 -10 -5 0 -7 5 -4 10 3 6 8 10 11 10 2 0 4
-4 4 -10z m100 6 c0 -3 -4 -8 -10 -11 -5 -3 -10 -1 -10 4 0 6 5 11 10 11 6 0
10 -2 10 -4z m-860 -166 c0 -5 -5 -10 -11 -10 -5 0 -7 5 -4 10 3 6 8 10 11 10
2 0 4 -4 4 -10z m1965 -120 c3 -5 -1 -10 -10 -10 -9 0 -13 5 -10 10 3 6 8 10
10 10 2 0 7 -4 10 -10z m142 -102 c-3 -8 -6 -5 -6 6 -1 11 2 17 5 13 3 -3 4
-12 1 -19z m-2633 -86 c3 -5 -1 -9 -9 -9 -8 0 -12 4 -9 9 3 4 7 8 9 8 2 0 6
-4 9 -8z m2806 -32 c0 -5 -2 -10 -4 -10 -3 0 -8 5 -11 10 -3 6 -1 10 4 10 6 0
11 -4 11 -10z m245 -220 c3 -5 1 -10 -4 -10 -6 0 -11 5 -11 10 0 6 2 10 4 10
3 0 8 -4 11 -10z m-3928 -1360 c0 -16 -3 -30 -7 -30 -3 0 -6 14 -6 30 0 17 3
30 6 30 4 0 7 -13 7 -30z m4518 1 c3 -5 2 -12 -3 -15 -5 -3 -9 1 -9 9 0 17 3
19 12 6z m-4518 -56 c0 -8 -4 -12 -9 -9 -5 3 -6 10 -3 15 9 13 12 11 12 -6z
m-2 -54 c3 -5 2 -12 -3 -15 -5 -3 -9 1 -9 9 0 17 3 19 12 6z m-1 -67 c3 -8 2
-12 -4 -9 -6 3 -10 10 -10 16 0 14 7 11 14 -7z m-1 -54 c-3 -12 -8 -19 -11
-16 -5 6 5 36 12 36 2 0 2 -9 -1 -20z m4524 -115 c0 -8 -4 -12 -9 -9 -5 3 -6
10 -3 15 9 13 12 11 12 -6z m-4521 -51 c0 -13 -2 -22 -5 -19 -3 3 -6 17 -7 31
0 13 2 22 5 19 3 -3 6 -17 7 -31z m4521 -34 c-1 -11 -4 -20 -8 -20 -4 0 -6 11
-5 24 0 13 4 22 8 20 4 -2 6 -13 5 -24z m-4500 -142 c-3 -8 -6 -5 -6 6 -1 11
2 17 5 13 3 -3 4 -12 1 -19z m38 -148 c3 -5 1 -10 -4 -10 -6 0 -11 5 -11 10 0
6 2 10 4 10 3 0 8 -4 11 -10z m4065 -774 c0 -2 -7 -6 -15 -10 -8 -3 -15 -1
-15 4 0 6 7 10 15 10 8 0 15 -2 15 -4z m-190 -226 c0 -5 -2 -10 -4 -10 -3 0
-8 5 -11 10 -3 6 -1 10 4 10 6 0 11 -4 11 -10z m-2870 -376 c0 -8 -19 -13 -24
-6 -3 5 1 9 9 9 8 0 15 -2 15 -3z m281 -162 c-7 -2 -18 1 -23 6 -8 8 -4 9 13
5 13 -4 18 -8 10 -11z m93 -28 c3 -8 2 -12 -4 -9 -6 3 -10 10 -10 16 0 14 7
11 14 -7z m1670 0 c3 -8 2 -12 -4 -9 -6 3 -10 10 -10 16 0 14 7 11 14 -7z
m-1590 -32 c2 -4 -4 -8 -14 -8 -10 0 -16 4 -14 8 3 4 9 8 14 8 5 0 11 -4 14
-8z m200 -60 c3 -5 -1 -9 -9 -9 -8 0 -12 4 -9 9 3 4 7 8 9 8 2 0 6 -4 9 -8z
m132 -34 c-9 -5 -23 -5 -32 0 -12 6 -7 9 16 9 23 0 28 -3 16 -9z m854 3 c0 -4
-11 -7 -24 -7 -14 0 -23 3 -21 6 5 9 45 10 45 1z m-316 -29 c2 -4 -5 -9 -17
-9 -17 -2 -19 0 -7 7 18 12 18 12 24 2z"/>
<path d="M1970 4709 c0 -5 5 -7 10 -4 6 3 10 8 10 11 0 2 -4 4 -10 4 -5 0 -10
-5 -10 -11z"/>
<path d="M3070 4710 c0 -5 5 -10 11 -10 5 0 7 5 4 10 -3 6 -8 10 -11 10 -2 0
-4 -4 -4 -10z"/>
<path d="M1810 4680 c0 -5 5 -10 11 -10 5 0 7 5 4 10 -3 6 -8 10 -11 10 -2 0
-4 -4 -4 -10z"/>
<path d="M3485 4550 c3 -5 8 -10 11 -10 2 0 4 5 4 10 0 6 -5 10 -11 10 -5 0
-7 -4 -4 -10z"/>
<path d="M875 4110 c3 -5 8 -10 11 -10 2 0 4 5 4 10 0 6 -5 10 -11 10 -5 0 -7
-4 -4 -10z"/>
<path d="M720 3929 c0 -5 5 -7 10 -4 6 3 10 8 10 11 0 2 -4 4 -10 4 -5 0 -10
-5 -10 -11z"/>
<path d="M316 3168 c3 -5 10 -6 15 -3 13 9 11 12 -6 12 -8 0 -12 -4 -9 -9z"/>
<path d="M280 3030 c0 -5 5 -10 11 -10 5 0 7 5 4 10 -3 6 -8 10 -11 10 -2 0
-4 -4 -4 -10z"/>
<path d="M250 2943 c0 -4 5 -15 10 -23 8 -13 10 -13 10 2 0 9 -4 20 -10 23 -5
3 -10 3 -10 -2z"/>
<path d="M206 2202 c-2 -4 4 -8 14 -8 10 0 16 4 14 8 -3 4 -9 8 -14 8 -5 0
-11 -4 -14 -8z"/>
<path d="M4760 2200 c0 -5 5 -10 10 -10 6 0 10 5 10 10 0 6 -4 10 -10 10 -5 0
-10 -4 -10 -10z"/>
<path d="M255 2049 c-4 -6 -5 -12 -2 -15 2 -3 7 2 10 11 7 17 1 20 -8 4z"/>
<path d="M170 1960 c0 -5 5 -10 11 -10 5 0 7 5 4 10 -3 6 -8 10 -11 10 -2 0
-4 -4 -4 -10z"/>
<path d="M290 1920 c0 -5 5 -10 11 -10 5 0 7 5 4 10 -3 6 -8 10 -11 10 -2 0
-4 -4 -4 -10z"/>
<path d="M406 1568 c3 -5 10 -6 15 -3 13 9 11 12 -6 12 -8 0 -12 -4 -9 -9z"/>
<path d="M435 1510 c4 -6 11 -8 16 -5 14 9 11 15 -7 15 -8 0 -12 -5 -9 -10z"/>
<path d="M4330 1139 c0 -5 5 -7 10 -4 6 3 10 8 10 11 0 2 -4 4 -10 4 -5 0 -10
-5 -10 -11z"/>
<path d="M1426 482 c-3 -5 1 -9 9 -9 8 0 12 4 9 9 -3 4 -7 8 -9 8 -2 0 -6 -4
-9 -8z"/>
<path d="M3425 410 c-3 -6 1 -7 9 -4 18 7 21 14 7 14 -6 0 -13 -4 -16 -10z"/>
</g>
</svg>
